# xmcd CD database file
#
# Track frame offsets:
#	150
#	17846
#	31581
#	41943
#	59046
#	72459
#	84216
#
# Disc length: 1313 seconds
#
# Revision: 0
# Processed by: cddbd v1.5.2PL0 Copyright (c) Steve Scherf et al.
# Submitted via: CDex 1.70beta2
#
DISCID=59051f07
DTITLE=Carmen McRae - Cool Jazz Collection 29
DYEAR=2009
DGENRE=Jazz
TTITLE0=My Romance
TTITLE1=Isn't It Romantic?
TTITLE2=East of the Sun (West of the Moon)
TTITLE3=Midnight Sun
TTITLE4=But Beautiful
TTITLE5=Blue Moon
TTITLE6=My Foolish Heart
EXTD=YEAR: 2009
EXTT0=
EXTT1=
EXTT2=
EXTT3=
EXTT4=
EXTT5=
EXTT6=
PLAYORDER=
